<svg width="22" height="17" viewBox="0 0 22 17" fill="none" xmlns="http://www.w3.org/2000/svg">
<path d="M7.75 0.875H6.625C4.72656 0.875 3.25 2.38672 3.25 4.25V5.58594C3.25 5.86719 3.10938 6.18359 2.89844 6.39453L1.31641 7.97656C0.859375 8.39844 0.859375 9.13672 1.31641 9.55859L2.89844 11.1406C3.10938 11.3516 3.25 11.6328 3.25 11.9492V13.25C3.25 15.1484 4.72656 16.625 6.625 16.625H7.75C8.34766 16.625 8.875 16.1328 8.875 15.5C8.875 14.9023 8.34766 14.375 7.75 14.375H6.625C5.99219 14.375 5.5 13.8828 5.5 13.25V11.9492C5.5 11.0703 5.11328 10.1914 4.48047 9.55859L3.70703 8.75L4.48047 7.97656C5.11328 7.34375 5.5 6.46484 5.5 5.58594V4.25C5.5 3.65234 5.99219 3.125 6.625 3.125H7.75C8.34766 3.125 8.875 2.63281 8.875 2C8.875 1.40234 8.34766 0.875 7.75 0.875ZM20.8984 7.97656L19.3164 6.39453C19.1055 6.18359 19 5.86719 19 5.58594V4.25C19 2.38672 17.4883 0.875 15.625 0.875H14.5C13.8672 0.875 13.375 1.40234 13.375 2C13.375 2.5625 13.8672 3.125 14.4648 3.125H15.625C16.2227 3.125 16.75 3.65234 16.75 4.25V5.58594C16.75 6.46484 17.1016 7.34375 17.7344 7.97656L18.5078 8.75L17.7344 9.55859C17.1016 10.1914 16.75 11.0352 16.75 11.9492V13.25C16.75 13.8828 16.2227 14.375 15.625 14.375H14.5C13.8672 14.375 13.375 14.9023 13.375 15.5C13.375 16.0625 13.8672 16.625 14.4648 16.625H15.625C17.4883 16.625 19 15.1484 19 13.25V11.9492C19 11.668 19.1055 11.3516 19.3164 11.1406L20.8984 9.55859C21.3555 9.13672 21.3555 8.39844 20.8984 7.97656Z" fill="#0077C0"/>
</svg>
