<svg
      xmlns="http://www.w3.org/2000/svg"
      width="50"
      height="20"
      fill="none"
      viewBox="0 0 216 57"
    >
      <g fill="#FFFFFF" clipPath="url(#clip0_96_108)">
        <path d="M39.2 50.7c0 2.4 1.9 4.3 4.3 4.3h6.3V0H39.2v50.7zM82.4 19.9c-2.6-3.2-6.4-5.4-11.8-5.4-10.9 0-19.1 8.9-19.1 20.8s8.2 20.8 19.1 20.8c5.4 0 9.2-2.2 11.8-5.4v.1c0 2.4 1.9 4.3 4.3 4.3h6.1V15.6H82.4v4.3zm-9.8 26.3c-6.2 0-10.2-4.8-10.2-10.9 0-6 4-10.9 10.2-10.9 6.1 0 10.2 4.6 10.2 10.9 0 6.2-4.1 10.9-10.2 10.9zM95.6 50.7c0 2.4 1.9 4.3 4.3 4.3h6.3V0H95.6v50.7zM129.2 14.5c-12.3 0-21.3 8.9-21.3 20.8s9 20.8 21.3 20.8 21.4-8.9 21.4-20.8-9.1-20.8-21.4-20.8zm0 31.7c-6 0-10.5-4.5-10.5-10.9s4.5-10.9 10.5-10.9 10.5 4.5 10.5 10.9-4.5 10.9-10.5 10.9zM200.4 14.5c-5.2 0-10.3 1.8-13.4 6.8-2.6-4.2-7.3-6.8-13-6.8-4.5 0-8.8 1.5-11.6 5.7v-4.6h-10.3v35.2c0 2.4 1.9 4.3 4.3 4.3h6.3V33.4c0-5.9 3.8-8.9 8.4-8.9 4.8 0 7.7 3.1 7.7 8.8v17.4c0 2.4 1.9 4.3 4.3 4.3h6.3V33.4c0-5.9 3.8-8.9 8.4-8.9 4.8 0 7.7 3.1 7.7 8.8v17.4c0 2.4 1.9 4.3 4.3 4.3h6.3V29.9c-.1-9.2-6.4-15.4-15.7-15.4zM22.7 31l-4.8-.6c-3.6-.6-5.9-1.2-5.8-3.5 0-2.2 1.9-3.6 5.9-3.5 3.9.1 7.9 1.2 11 2.4 2.1.8 4.6-.1 5.5-2.2l2-4.3c-5.2-2.7-11.2-4.5-18.3-4.6-9.3-.3-17 4-17.2 12.2-.1 6.4 2.8 10.8 14.3 12.6l2.3.3c5.1.7 8.9.9 8.9 3.7-.1 2.9-3.1 3.9-9 3.8-6-.1-11.4-2.9-13.9-4.3L0 51.2c5.5 3.3 12.1 4.9 17.5 5 13.3.2 20-4.4 20.1-12.7.1-7.4-6.3-11.5-14.9-12.5z" />
      </g>
      <defs>
        <clipPath id="clip0_96_108">
          <path fill="#fff" d="M0 0H216V56.1H0z" />
        </clipPath>
      </defs>
</svg>